<?xml version="1.0" encoding="utf-8"?>
<!-- Generator: Adobe Illustrator 16.0.0, SVG Export Plug-In . SVG Version: 6.00 Build 0)  -->
<!DOCTYPE svg PUBLIC "-//W3C//DTD SVG 1.1//EN" "http://www.w3.org/Graphics/SVG/1.1/DTD/svg11.dtd">
<svg version="1.1" id="Layer_1" xmlns="http://www.w3.org/2000/svg" xmlns:xlink="http://www.w3.org/1999/xlink" x="0px" y="0px"
	 width="969.221px" height="180.4px" viewBox="0 0 969.221 180.4" enable-background="new 0 0 969.221 180.4" xml:space="preserve">
<g enable-background="new    ">
	<path d="M27.539,130.421v1.26c0,7.74,1.44,11.88,4.86,13.859c4.32,2.521,13.679,3.601,31.319,3.601
		c14.939,0,24.299-0.54,37.258-2.16c6.84-0.9,10.26-2.16,12.419-4.68c2.34-2.88,3.6-6.48,3.6-10.26c0-7.02-3.06-10.439-11.34-12.239
		c-5.04-1.08-5.22-1.08-37.979-1.261H50.398c-25.379-0.18-35.278-2.159-41.938-8.279C2.7,105.222,0,97.663,0,87.043
		c0-13.319,3.24-24.299,9-29.339c8.1-7.56,26.459-10.439,66.057-10.439c24.119,0,37.079,0.899,45.358,3.42
		c14.939,4.319,20.159,12.419,20.159,30.958v2.34h-26.999c-0.18-7.02-1.98-10.619-5.76-12.419c-5.04-2.34-16.56-3.78-29.879-3.78
		c-22.679,0-38.519,1.44-43.918,4.14c-4.319,1.98-6.479,6.12-6.479,11.7c0,5.22,1.62,8.64,5.04,10.619
		c4.14,2.34,10.979,3.061,29.878,3.061h20.339c35.999,0,46.978,1.979,54.538,10.079c5.04,5.22,7.38,13.14,7.38,25.02
		c0,12.599-2.7,21.238-8.64,26.998c-7.92,7.561-23.399,10.08-63.897,10.08c-43.198,0-56.698-1.98-64.257-9.18
		c-5.4-5.22-7.74-12.42-7.74-23.759c0-1.08,0-3.78,0.18-6.12H27.539z"/>
	<path d="M258.653,137.441c0,15.479-1.44,20.879-6.66,25.56c-5.76,5.039-14.579,7.02-31.679,7.02
		c-19.259,0-28.438-2.34-34.738-8.819c-4.14-4.141-6.48-13.14-5.94-21.239l0.18-1.44l0.18-37.618h-17.639v-16.92h17.819V64.364
		h24.119l-0.18,19.619h53.818v16.92h-53.818l-0.36,33.658c-0.18,14.939,3.06,17.819,19.619,17.819c7.02,0,11.339-1.26,13.859-3.6
		c2.16-2.34,2.52-4.859,2.52-13.5v-3.239h18.899V137.441z"/>
	<path d="M302.573,130.782c0.18,9.72,1.8,15.839,5.04,18.899c3.6,3.239,13.5,4.68,31.139,4.68c19.799,0,25.919-2.7,27.179-12.24
		h23.399c-0.36,9.18-2.88,15.3-8.1,19.619c-7.379,5.94-19.259,8.1-44.278,8.1c-19.259,0-34.379-1.619-40.858-4.499
		c-12.959-5.94-17.819-16.199-17.819-38.698c0-18.18,3.06-28.439,10.26-35.099c7.56-7.021,18.539-9,47.878-9
		c27.179,0,37.798,2.52,44.998,10.439c5.94,6.84,8.1,15.119,8.1,32.219v5.58H302.573z M365.931,116.742
		c0-4.859-0.54-7.56-2.16-10.619c-1.26-2.34-3.06-4.14-4.86-5.04c-4.14-1.8-12.06-3.06-20.879-3.06
		c-18.179,0-23.399,0.54-28.438,3.239c-4.32,2.341-7.02,7.92-7.02,14.399v1.08H365.931z"/>
	<path d="M413.453,83.983h22.859v17.819c3.78-8.999,5.94-12.06,10.259-14.579c5.58-3.06,14.399-4.859,25.379-4.859
		c16.918,0,27.539,3.96,32.039,11.879c2.88,5.04,3.96,10.979,3.96,21.06c0,0.899,0,3.06-0.18,5.399h-22.5
		c0-7.38-0.359-9.899-1.799-12.959c-2.16-4.14-8.82-6.48-18.72-6.48c-19.979,0-27.539,6.66-27.539,23.76V168.4h-23.759V83.983z"/>
	<path d="M549.529,130.782c0.18,9.72,1.8,15.839,5.039,18.899c3.601,3.239,13.5,4.68,31.139,4.68c19.8,0,25.919-2.7,27.18-12.24
		h23.398c-0.359,9.18-2.88,15.3-8.1,19.619c-7.38,5.94-19.259,8.1-44.278,8.1c-19.259,0-34.378-1.619-40.858-4.499
		c-12.959-5.94-17.819-16.199-17.819-38.698c0-18.18,3.061-28.439,10.26-35.099c7.56-7.021,18.539-9,47.878-9
		c27.18,0,37.799,2.52,44.998,10.439c5.94,6.84,8.101,15.119,8.101,32.219v5.58H549.529z M612.887,116.742
		c0-4.859-0.54-7.56-2.16-10.619c-1.26-2.34-3.06-4.14-4.86-5.04c-4.14-1.8-12.06-3.06-20.879-3.06
		c-18.179,0-23.398,0.54-28.438,3.239c-4.32,2.341-7.02,7.92-7.02,14.399v1.08H612.887z"/>
	<path d="M765.345,92.263c6.3,5.939,8.279,14.219,8.279,35.458c0,14.939-2.88,26.999-7.56,31.679c-3.06,3.061-8.279,5.94-12.6,7.2
		c-6.659,1.979-23.398,3.42-39.598,3.42c-47.879,0-56.519-6.66-56.519-44.099c0-19.079,2.521-28.438,9-34.198
		c3.06-2.7,7.92-5.04,12.779-6.3c6.3-1.62,23.579-3.06,35.639-3.06C744.466,82.364,757.425,84.883,765.345,92.263z M686.147,106.482
		c-3.419,3.78-4.68,9.36-4.68,19.979c0,21.779,4.68,25.56,31.319,25.56c17.099,0,25.019-0.9,29.158-3.24
		c5.58-3.24,7.56-9,7.56-21.779c0-22.679-4.499-26.639-30.599-26.639C697.848,100.363,690.107,101.802,686.147,106.482z"/>
</g>
<g>
	<path d="M969.221,180.4h-55.2L760.021,0L969.221,180.4z"/>
	<path d="M918.82,48.4h38.4l-134.4,120h-38.4L918.82,48.4z"/>
</g>
<g>
</g>
<g>
</g>
<g>
</g>
<g>
</g>
<g>
</g>
<g>
</g>
<g>
</g>
<g>
</g>
<g>
</g>
<g>
</g>
<g>
</g>
<g>
</g>
<g>
</g>
<g>
</g>
<g>
</g>
</svg>
