<?xml version="1.0" encoding="utf-8"?>
<!-- Generator: Adobe Illustrator 16.0.0, SVG Export Plug-In . SVG Version: 6.00 Build 0)  -->
<!DOCTYPE svg PUBLIC "-//W3C//DTD SVG 1.1//EN" "http://www.w3.org/Graphics/SVG/1.1/DTD/svg11.dtd">
<svg version="1.1" id="Layer_1" xmlns="http://www.w3.org/2000/svg" xmlns:xlink="http://www.w3.org/1999/xlink" x="0px" y="0px"
	 width="971.444px" height="195.029px" viewBox="0 0 971.444 195.029" enable-background="new 0 0 971.444 195.029"
	 xml:space="preserve">
<g enable-background="new    ">
	<path d="M40.318,112.051v1.26c0,7.74,1.44,11.88,4.86,13.859c4.32,2.521,13.679,3.601,31.319,3.601
		c14.939,0,24.299-0.54,37.258-2.16c6.84-0.9,10.26-2.16,12.419-4.68c2.34-2.88,3.6-6.48,3.6-10.26c0-7.02-3.06-10.439-11.34-12.239
		c-5.04-1.08-5.22-1.08-37.979-1.261H63.177c-25.379-0.18-35.278-2.159-41.938-8.279c-5.76-5.04-8.46-12.6-8.46-23.219
		c0-13.319,3.24-24.299,9-29.339c8.1-7.56,26.459-10.439,66.057-10.439c24.119,0,37.079,0.899,45.358,3.42
		c14.939,4.319,20.159,12.419,20.159,30.958v2.34h-26.999c-0.18-7.02-1.98-10.619-5.76-12.419c-5.04-2.34-16.56-3.78-29.879-3.78
		c-22.679,0-38.519,1.44-43.918,4.14c-4.319,1.98-6.479,6.12-6.479,11.7c0,5.22,1.62,8.64,5.04,10.619
		c4.14,2.34,10.979,3.061,29.878,3.061h20.339c35.999,0,46.978,1.979,54.538,10.079c5.04,5.22,7.38,13.14,7.38,25.02
		c0,12.599-2.7,21.238-8.64,26.998c-7.92,7.561-23.399,10.08-63.897,10.08c-43.198,0-56.698-1.98-64.257-9.18
		c-5.4-5.22-7.74-12.42-7.74-23.759c0-1.08,0-3.78,0.18-6.12H40.318z"/>
	<path d="M271.433,119.07c0,15.479-1.44,20.879-6.66,25.56c-5.76,5.039-14.579,7.02-31.679,7.02c-19.259,0-28.438-2.34-34.738-8.819
		c-4.14-4.141-6.48-13.14-5.94-21.239l0.18-1.44l0.18-37.618h-17.639v-16.92h17.819V45.993h24.119l-0.18,19.619h53.818v16.92
		h-53.818l-0.36,33.658c-0.18,14.939,3.06,17.819,19.619,17.819c7.02,0,11.339-1.26,13.859-3.6c2.16-2.34,2.52-4.859,2.52-13.5
		v-3.239h18.899V119.07z"/>
	<path d="M315.353,112.411c0.18,9.72,1.8,15.839,5.04,18.899c3.6,3.239,13.5,4.68,31.139,4.68c19.799,0,25.919-2.7,27.179-12.24
		h23.399c-0.36,9.18-2.88,15.3-8.1,19.619c-7.379,5.94-19.259,8.1-44.278,8.1c-19.259,0-34.379-1.619-40.858-4.499
		c-12.959-5.94-17.819-16.199-17.819-38.698c0-18.18,3.06-28.439,10.26-35.099c7.56-7.021,18.539-9,47.878-9
		c27.179,0,37.798,2.52,44.998,10.439c5.94,6.84,8.1,15.119,8.1,32.219v5.58H315.353z M378.71,98.371c0-4.859-0.54-7.56-2.16-10.619
		c-1.26-2.34-3.06-4.14-4.86-5.04c-4.14-1.8-12.06-3.06-20.879-3.06c-18.179,0-23.399,0.54-28.438,3.239
		c-4.32,2.341-7.02,7.92-7.02,14.399v1.08H378.71z"/>
	<path d="M426.232,65.612h22.859v17.819c3.78-8.999,5.939-12.06,10.26-14.579c5.58-3.06,14.399-4.859,25.379-4.859
		c16.919,0,27.539,3.96,32.038,11.879c2.88,5.04,3.96,10.979,3.96,21.06c0,0.899,0,3.06-0.18,5.399H498.05
		c0-7.38-0.36-9.899-1.8-12.959c-2.16-4.14-8.82-6.48-18.719-6.48c-19.979,0-27.539,6.66-27.539,23.76v43.378h-23.759V65.612z"/>
	<path d="M562.31,112.411c0.18,9.72,1.8,15.839,5.039,18.899c3.601,3.239,13.5,4.68,31.139,4.68c19.8,0,25.919-2.7,27.18-12.24
		h23.398c-0.359,9.18-2.88,15.3-8.1,19.619c-7.38,5.94-19.259,8.1-44.278,8.1c-19.259,0-34.378-1.619-40.858-4.499
		c-12.959-5.94-17.819-16.199-17.819-38.698c0-18.18,3.061-28.439,10.26-35.099c7.56-7.021,18.539-9,47.878-9
		c27.18,0,37.799,2.52,44.999,10.439c5.939,6.84,8.1,15.119,8.1,32.219v5.58H562.31z M625.667,98.371c0-4.859-0.54-7.56-2.16-10.619
		c-1.26-2.34-3.06-4.14-4.86-5.04c-4.14-1.8-12.059-3.06-20.879-3.06c-18.179,0-23.398,0.54-28.438,3.239
		c-4.32,2.341-7.02,7.92-7.02,14.399v1.08H625.667z"/>
	<path d="M778.125,73.893c6.3,5.939,8.279,14.219,8.279,35.458c0,14.939-2.88,26.999-7.56,31.679c-3.06,3.061-8.279,5.94-12.6,7.2
		c-6.659,1.979-23.398,3.42-39.598,3.42c-47.879,0-56.519-6.66-56.519-44.099c0-19.079,2.521-28.438,9-34.198
		c3.06-2.7,7.92-5.04,12.779-6.3c6.3-1.62,23.579-3.06,35.639-3.06C757.246,63.993,770.205,66.513,778.125,73.893z M698.928,88.111
		c-3.42,3.78-4.68,9.36-4.68,19.979c0,21.779,4.68,25.56,31.319,25.56c17.099,0,25.019-0.9,29.158-3.24
		c5.58-3.24,7.56-9,7.56-21.779c0-22.679-4.499-26.639-30.599-26.639C710.628,81.992,702.888,83.432,698.928,88.111z"/>
	<path d="M861.284,88.651l-58.317-58.677h36.898l44.278,45.538l44.458-45.538h36.358l-58.138,58.317l62.817,61.737h-37.799
		l-47.697-48.598l-47.879,48.598h-37.438L861.284,88.651z"/>
</g>
<g>
</g>
<g>
</g>
<g>
</g>
<g>
</g>
<g>
</g>
<g>
</g>
<g>
</g>
<g>
</g>
<g>
</g>
<g>
</g>
<g>
</g>
<g>
</g>
<g>
</g>
<g>
</g>
<g>
</g>
</svg>
